<svg width="32" height="32" xmlns="http://www.w3.org/2000/svg">

 <g>
  <title>background</title>
  <rect fill="none" id="canvas_background" height="402" width="582" y="-1" x="-1"/>
 </g>
 <g>
  <title>Layer 1</title>
  <path stroke="null" fill="#060728" id="svg_3" d="m16,-0.037033c-6.667905,0 -12.074075,5.385437 -12.074075,12.027774s10.061729,20.046293 12.074075,20.046293s12.074075,-13.403946 12.074075,-20.046293s-5.40617,-12.027774 -12.074075,-12.027774zm0,20.046293c-4.439234,0 -8.049383,-3.598309 -8.049383,-8.018519s3.610149,-8.018519 8.049383,-8.018519s8.049383,3.598319 8.049383,8.018519s-3.610149,8.018519 -8.049383,8.018519z"/>
  <path stroke="null" fill="#0a0d54" id="svg_2" d="m16,0c-6.238392,0 -11.296318,5.19888 -11.296318,11.611123s9.413598,19.351871 11.296318,19.351871s11.296318,-12.939629 11.296318,-19.351871s-5.057927,-11.611123 -11.296318,-11.611123zm0,19.351871c-4.15328,0 -7.530879,-3.473661 -7.530879,-7.740748s3.377599,-7.740749 7.530879,-7.740749s7.530878,3.473661 7.530878,7.740749s-3.377599,7.740748 -7.530878,7.740748z"/>
  <ellipse stroke="null" ry="8.555296" rx="8.88862" id="svg_7" cy="11.333475" cx="16.18518" stroke-opacity="null" stroke-width="null" fill="#0a0d54"/>
  <ellipse stroke="null" ry="5.629459" rx="5.555387" id="svg_4" cy="11.148296" cx="16.000001" stroke-opacity="null" stroke-width="null" fill="#ffffff"/>
 </g>
</svg>